<mxfile host="Electron" modified="2024-07-08T14:53:33.222Z" agent="Mozilla/5.0 (Windows NT 10.0; Win64; x64) AppleWebKit/537.36 (KHTML, like Gecko) draw.io/24.6.4 Chrome/124.0.6367.207 Electron/30.0.6 Safari/537.36" etag="gCp2bB4EejU_pjm_vLfO" version="24.6.4" type="device">
  <diagram name="Page-1" id="UZjUC2LBfjLyw14EBkGf">
    <mxGraphModel dx="1036" dy="654" grid="1" gridSize="10" guides="1" tooltips="1" connect="1" arrows="1" fold="1" page="1" pageScale="1" pageWidth="850" pageHeight="1100" math="0" shadow="0">
      <root>
        <mxCell id="0" />
        <mxCell id="1" parent="0" />
        <mxCell id="ZPBb6Z2JLXZu8jagUMnx-1" value="&lt;font style=&quot;font-size: 18px;&quot;&gt;COLLEGE&lt;/font&gt;" style="rounded=1;whiteSpace=wrap;html=1;" vertex="1" parent="1">
          <mxGeometry x="240" y="40" width="150" height="40" as="geometry" />
        </mxCell>
        <mxCell id="ZPBb6Z2JLXZu8jagUMnx-2" value="&lt;font style=&quot;font-size: 18px;&quot;&gt;BONUS&lt;/font&gt;" style="rounded=1;whiteSpace=wrap;html=1;" vertex="1" parent="1">
          <mxGeometry x="490" y="120" width="150" height="40" as="geometry" />
        </mxCell>
        <mxCell id="ZPBb6Z2JLXZu8jagUMnx-6" style="edgeStyle=orthogonalEdgeStyle;rounded=0;orthogonalLoop=1;jettySize=auto;html=1;entryX=0.5;entryY=1;entryDx=0;entryDy=0;fillColor=#008a00;strokeColor=#005700;" edge="1" parent="1" source="ZPBb6Z2JLXZu8jagUMnx-3" target="ZPBb6Z2JLXZu8jagUMnx-1">
          <mxGeometry relative="1" as="geometry" />
        </mxCell>
        <mxCell id="ZPBb6Z2JLXZu8jagUMnx-3" value="&lt;font size=&quot;3&quot;&gt;PROFESSOR&lt;/font&gt;" style="rounded=1;whiteSpace=wrap;html=1;" vertex="1" parent="1">
          <mxGeometry x="240" y="160" width="150" height="40" as="geometry" />
        </mxCell>
        <mxCell id="ZPBb6Z2JLXZu8jagUMnx-8" style="edgeStyle=orthogonalEdgeStyle;rounded=0;orthogonalLoop=1;jettySize=auto;html=1;entryX=0.75;entryY=1;entryDx=0;entryDy=0;fillColor=#e51400;strokeColor=#B20000;" edge="1" parent="1" source="ZPBb6Z2JLXZu8jagUMnx-4" target="ZPBb6Z2JLXZu8jagUMnx-2">
          <mxGeometry relative="1" as="geometry" />
        </mxCell>
        <mxCell id="ZPBb6Z2JLXZu8jagUMnx-9" style="edgeStyle=orthogonalEdgeStyle;rounded=0;orthogonalLoop=1;jettySize=auto;html=1;entryX=0;entryY=0.25;entryDx=0;entryDy=0;fillColor=#e51400;strokeColor=#B20000;" edge="1" parent="1" source="ZPBb6Z2JLXZu8jagUMnx-4" target="ZPBb6Z2JLXZu8jagUMnx-1">
          <mxGeometry relative="1" as="geometry">
            <Array as="points">
              <mxPoint x="170" y="380" />
              <mxPoint x="170" y="80" />
              <mxPoint x="220" y="80" />
              <mxPoint x="220" y="50" />
            </Array>
          </mxGeometry>
        </mxCell>
        <mxCell id="ZPBb6Z2JLXZu8jagUMnx-4" value="&lt;span style=&quot;font-size: 18px;&quot;&gt;ASST. PROF&lt;/span&gt;" style="rounded=1;whiteSpace=wrap;html=1;" vertex="1" parent="1">
          <mxGeometry x="480" y="360" width="150" height="40" as="geometry" />
        </mxCell>
        <mxCell id="ZPBb6Z2JLXZu8jagUMnx-10" style="edgeStyle=orthogonalEdgeStyle;rounded=0;orthogonalLoop=1;jettySize=auto;html=1;entryX=0.5;entryY=1;entryDx=0;entryDy=0;fillColor=#008a00;strokeColor=#005700;" edge="1" parent="1" source="ZPBb6Z2JLXZu8jagUMnx-7" target="ZPBb6Z2JLXZu8jagUMnx-3">
          <mxGeometry relative="1" as="geometry" />
        </mxCell>
        <mxCell id="ZPBb6Z2JLXZu8jagUMnx-7" value="&lt;font style=&quot;font-size: 18px;&quot;&gt;TEACHER&lt;/font&gt;" style="rounded=1;whiteSpace=wrap;html=1;" vertex="1" parent="1">
          <mxGeometry x="240" y="280" width="150" height="40" as="geometry" />
        </mxCell>
        <mxCell id="ZPBb6Z2JLXZu8jagUMnx-28" style="edgeStyle=orthogonalEdgeStyle;rounded=0;orthogonalLoop=1;jettySize=auto;html=1;" edge="1" parent="1" source="ZPBb6Z2JLXZu8jagUMnx-15" target="ZPBb6Z2JLXZu8jagUMnx-27">
          <mxGeometry relative="1" as="geometry" />
        </mxCell>
        <mxCell id="ZPBb6Z2JLXZu8jagUMnx-15" value="&lt;b&gt;&lt;font style=&quot;font-size: 14px;&quot;&gt;Multipale Inheritance&lt;/font&gt;&lt;/b&gt;" style="text;html=1;align=center;verticalAlign=middle;whiteSpace=wrap;rounded=0;fillColor=#e51400;fontColor=#ffffff;strokeColor=#B20000;" vertex="1" parent="1">
          <mxGeometry x="160" y="410" width="150" height="30" as="geometry" />
        </mxCell>
        <mxCell id="ZPBb6Z2JLXZu8jagUMnx-23" style="edgeStyle=orthogonalEdgeStyle;rounded=0;orthogonalLoop=1;jettySize=auto;html=1;" edge="1" parent="1" source="ZPBb6Z2JLXZu8jagUMnx-18" target="ZPBb6Z2JLXZu8jagUMnx-22">
          <mxGeometry relative="1" as="geometry" />
        </mxCell>
        <mxCell id="ZPBb6Z2JLXZu8jagUMnx-18" value="&lt;span style=&quot;font-size: 14px;&quot;&gt;&lt;b&gt;Multilevel Inheritance&lt;/b&gt;&lt;/span&gt;" style="text;html=1;align=center;verticalAlign=middle;whiteSpace=wrap;rounded=0;fillColor=#008a00;fontColor=#ffffff;strokeColor=#005700;" vertex="1" parent="1">
          <mxGeometry x="160" y="490" width="150" height="30" as="geometry" />
        </mxCell>
        <mxCell id="ZPBb6Z2JLXZu8jagUMnx-21" style="edgeStyle=orthogonalEdgeStyle;rounded=0;orthogonalLoop=1;jettySize=auto;html=1;exitX=1;exitY=0.5;exitDx=0;exitDy=0;" edge="1" parent="1" source="ZPBb6Z2JLXZu8jagUMnx-19" target="ZPBb6Z2JLXZu8jagUMnx-20">
          <mxGeometry relative="1" as="geometry" />
        </mxCell>
        <mxCell id="ZPBb6Z2JLXZu8jagUMnx-19" value="&lt;span style=&quot;font-size: 14px;&quot;&gt;&lt;b&gt;Singel Level Inh.&lt;/b&gt;&lt;/span&gt;" style="text;html=1;align=center;verticalAlign=middle;whiteSpace=wrap;rounded=0;fillColor=#008a00;fontColor=#ffffff;strokeColor=#005700;" vertex="1" parent="1">
          <mxGeometry x="160" y="450" width="150" height="30" as="geometry" />
        </mxCell>
        <mxCell id="ZPBb6Z2JLXZu8jagUMnx-20" value="&lt;b&gt;&lt;font style=&quot;font-size: 14px;&quot;&gt;Teacher Inherit&amp;nbsp; prof.&lt;/font&gt;&lt;/b&gt;" style="text;strokeColor=none;fillColor=none;align=left;verticalAlign=middle;spacingLeft=4;spacingRight=4;overflow=hidden;points=[[0,0.5],[1,0.5]];portConstraint=eastwest;rotatable=0;whiteSpace=wrap;html=1;" vertex="1" parent="1">
          <mxGeometry x="360" y="450" width="160" height="30" as="geometry" />
        </mxCell>
        <mxCell id="ZPBb6Z2JLXZu8jagUMnx-22" value="&lt;b&gt;&lt;font style=&quot;font-size: 14px;&quot;&gt;Teacher Inherit prof. as well as college&amp;nbsp;&lt;/font&gt;&lt;/b&gt;" style="text;html=1;align=center;verticalAlign=middle;whiteSpace=wrap;rounded=0;" vertex="1" parent="1">
          <mxGeometry x="365" y="490" width="275" height="30" as="geometry" />
        </mxCell>
        <mxCell id="ZPBb6Z2JLXZu8jagUMnx-24" value="Text" style="text;html=1;align=center;verticalAlign=middle;whiteSpace=wrap;rounded=0;" vertex="1" parent="1">
          <mxGeometry x="390" y="330" width="60" height="30" as="geometry" />
        </mxCell>
        <mxCell id="ZPBb6Z2JLXZu8jagUMnx-25" value="&lt;b&gt;&lt;font style=&quot;font-size: 18px;&quot;&gt;Combination of all Inheritance is &quot; Hybrid Inharitance&quot;&lt;/font&gt;&lt;/b&gt;" style="text;html=1;align=center;verticalAlign=middle;whiteSpace=wrap;rounded=0;fillColor=#647687;fontColor=#ffffff;strokeColor=#314354;" vertex="1" parent="1">
          <mxGeometry x="160" y="570" width="500" height="30" as="geometry" />
        </mxCell>
        <mxCell id="ZPBb6Z2JLXZu8jagUMnx-26" value="&lt;font style=&quot;font-size: 14px;&quot;&gt;&lt;b&gt;College is the parenet of prof. and asst.prof.&lt;/b&gt;&lt;/font&gt;" style="text;html=1;align=center;verticalAlign=middle;whiteSpace=wrap;rounded=0;" vertex="1" parent="1">
          <mxGeometry x="360" y="530" width="310" height="30" as="geometry" />
        </mxCell>
        <mxCell id="ZPBb6Z2JLXZu8jagUMnx-27" value="&lt;font style=&quot;font-size: 14px;&quot;&gt;&lt;b&gt;Asst. Prof. inherit college as well as Bonus&lt;/b&gt;&lt;/font&gt;" style="text;html=1;align=center;verticalAlign=middle;whiteSpace=wrap;rounded=0;" vertex="1" parent="1">
          <mxGeometry x="360" y="410" width="310" height="30" as="geometry" />
        </mxCell>
        <mxCell id="ZPBb6Z2JLXZu8jagUMnx-30" style="edgeStyle=orthogonalEdgeStyle;rounded=0;orthogonalLoop=1;jettySize=auto;html=1;entryX=0;entryY=0.5;entryDx=0;entryDy=0;" edge="1" parent="1" source="ZPBb6Z2JLXZu8jagUMnx-29" target="ZPBb6Z2JLXZu8jagUMnx-26">
          <mxGeometry relative="1" as="geometry" />
        </mxCell>
        <mxCell id="ZPBb6Z2JLXZu8jagUMnx-29" value="&lt;font style=&quot;font-size: 14px;&quot;&gt;&lt;b&gt;Hierarchical Inherit.&lt;/b&gt;&lt;/font&gt;" style="text;html=1;align=center;verticalAlign=middle;whiteSpace=wrap;rounded=0;fillColor=#e3c800;fontColor=#000000;strokeColor=#B09500;" vertex="1" parent="1">
          <mxGeometry x="160" y="530" width="150" height="30" as="geometry" />
        </mxCell>
      </root>
    </mxGraphModel>
  </diagram>
</mxfile>
